<?xml version="1.0" standalone="no"?><!DOCTYPE svg PUBLIC "-//W3C//DTD SVG 1.1//EN" "http://www.w3.org/Graphics/SVG/1.1/DTD/svg11.dtd"><svg t="1548415056722" class="icon" style="" viewBox="0 0 1024 1024" version="1.1" xmlns="http://www.w3.org/2000/svg" p-id="1954" xmlns:xlink="http://www.w3.org/1999/xlink" width="200" height="200"><defs><style type="text/css"></style></defs><path d="M856.54528 749.55776l-463.26272 225.8944 35.02592 9.18528L175.22176 465.6128v25.84064l134.7072-311.7056-28.90752 11.76576 328.55552 85.81632-15.29856-11.76576 253.08672 519.01952c14.46912 29.67552 58.61888 3.712 44.2112-25.84064l-159.68768-327.49056-83.712-171.66848c-5.93408-12.17024-10.56256-27.85792-25.37472-31.72864l-58.53184-15.28832-269.63456-70.4256c-10.0864-2.6368-24.39168 1.31072-28.90752 11.76576L131.0208 465.6128c-7.48544 17.31584 3.1488 32.29696 10.63424 47.6416l34.92864 71.63904 105.40544 216.1664 102.11328 209.41824c6.44096 13.20448 23.24992 14.92992 35.02592 9.18528l463.26272-225.8944c29.6704-14.46912 3.70176-58.61888-25.84576-44.2112z" p-id="1955"></path><path d="M341.42208 92.17536l343.85408 84.52608-15.29856-11.76576 252.28288 519.41376c14.42304 29.696 58.56768 3.72736 44.2112-25.84064l-159.18592-327.73632-83.44576-171.8016c-5.84192-12.02688-10.57792-28.1088-25.32864-31.73376l-57.1136-14.03904L355.03616 42.8032c-32.06656-7.87968-45.66528 41.4976-13.61408 49.37216zM462.75072 398.71488c28.94848 66.39104-67.88608 107.60192-101.632 45.27616-15.19616-28.06784 3.24608-59.95008 28.17536-73.4464 28.07296-15.20128 59.9552 3.23072 73.45664 28.17024 15.72352 29.04064 59.9296 3.19488 44.2112-25.84064-28.90752-53.39136-89.27232-70.1952-143.50336-46.5408-55.55712 24.22784-68.64384 92.8256-46.54592 143.49824 24.22272 55.55712 92.83072 68.63872 143.50336 46.54592 55.56224-24.2176 68.64384-92.83584 46.54592-143.50336-13.16864-30.20288-57.2672-4.11136-44.2112 25.84064z" p-id="1956"></path></svg>