<?xml version="1.0" standalone="no"?><!DOCTYPE svg PUBLIC "-//W3C//DTD SVG 1.1//EN" "http://www.w3.org/Graphics/SVG/1.1/DTD/svg11.dtd"><svg t="1548415254557" class="icon" style="" viewBox="0 0 1024 1024" version="1.1" xmlns="http://www.w3.org/2000/svg" p-id="2707" xmlns:xlink="http://www.w3.org/1999/xlink" width="200" height="200"><defs><style type="text/css"></style></defs><path d="M672 550.4c128 0 230.4-102.4 230.4-230.4s-102.4-230.4-230.4-230.4-236.8 96-236.8 224c0 134.4 108.8 236.8 236.8 236.8zM601.6 332.8c-12.8 0-25.6-6.4-25.6-19.2 0-12.8 12.8-19.2 25.6-19.2h38.4L601.6 256c-12.8-12.8-12.8-25.6 0-32s19.2-6.4 32 0l38.4 38.4 38.4-38.4c12.8-12.8 25.6-12.8 32 0s6.4 19.2 0 32l-38.4 38.4h25.6c12.8 0 25.6 6.4 25.6 19.2 0 12.8-12.8 19.2-25.6 19.2h-38.4v19.2h44.8c12.8 0 25.6 6.4 25.6 19.2 0 12.8-12.8 19.2-25.6 19.2h-38.4v25.6c0 12.8-6.4 25.6-19.2 25.6-12.8 0-19.2-12.8-19.2-25.6v-19.2h-57.6c-12.8 0-25.6-6.4-25.6-19.2 0-12.8 12.8-19.2 25.6-19.2h51.2v-25.6h-51.2z" fill="" p-id="2708"></path><path d="M1017.6 601.6c-12.8-25.6-32-38.4-44.8-38.4h-25.6l-134.4 64c0 44.8-32 83.2-76.8 83.2H473.6c-12.8 0-19.2-12.8-19.2-19.2 0-12.8 12.8-19.2 19.2-19.2h249.6c19.2 0 25.6-12.8 32-32 0-38.4-32-70.4-70.4-70.4H537.6c0-6.4-6.4-12.8-6.4-12.8l-25.6-25.6c-32-32-70.4-44.8-121.6-44.8H204.8v-25.6c0-12.8-6.4-19.2-19.2-19.2H19.2c-6.4 0-19.2 6.4-19.2 19.2v345.6c0 6.4 6.4 12.8 19.2 12.8H192c12.8 0 19.2-6.4 19.2-19.2V768l326.4 172.8c38.4 12.8 83.2 0 108.8-19.2l326.4-230.4 6.4-6.4c38.4-19.2 51.2-51.2 38.4-83.2z" fill="" p-id="2709"></path></svg>