<?xml version="1.0" standalone="no"?><!DOCTYPE svg PUBLIC "-//W3C//DTD SVG 1.1//EN" "http://www.w3.org/Graphics/SVG/1.1/DTD/svg11.dtd"><svg t="1555211946528" class="icon" style="" viewBox="0 0 1024 1024" version="1.1" xmlns="http://www.w3.org/2000/svg" p-id="2203" xmlns:xlink="http://www.w3.org/1999/xlink" width="200" height="200"><defs><style type="text/css"></style></defs><path d="M690.948 563.109c73.435-35.77 124.135-110.95 124.135-198.075 0-121.745-98.695-220.444-220.444-220.444-121.742 0-220.442 98.7-220.442 220.444 0 87.125 50.7 162.305 124.14 198.075l0 0 0 0c-127.81 38.86-222.419 153.03-232.929 290.899-0.88 2.21-1.43 4.5-1.43 7.03 0 10.14 8.22 18.37 18.37 18.37s18.38-8.18 18.38-18.37l0.91 0c9.55-153.72 136.91-275.559 293.007-275.559M778.348 365.034 778.348 365.034c0 101.495-82.255 183.755-183.705 183.755-101.407 0-183.657-82.26-183.657-183.755 0-101.405 82.25-183.7 183.657-183.7C696.093 181.335 778.348 263.629 778.348 365.034L778.348 365.034zM100.067 853.958 100.067 853.958c-0.87 2.21-1.42 4.55-1.38 7.08 0 10.15 8.18 18.37 18.37 18.37 10.1 0 18.37-8.18 18.37-18.37l0.92 0c8.13-131.95 103.24-240.149 228.709-268.209 14.7-11.76 30.36-22.09 46.62-31.5-0.19-1.11-0.69-2.16-0.69-3.4 0-3.59 0.73-7.03 2.02-10.11-93.83-8.27-167.45-86.84-167.45-182.785 0-96.21 74.12-175.115 168.41-182.875 13.5-13.41 28.75-25.17 45.01-35.315-9.69-1.335-19.56-2.255-29.71-2.255-121.75 0-220.399 98.74-220.399 220.444 0 87.125 50.7 162.305 124.09 198.075C205.197 601.969 110.587 716.138 100.067 853.958L100.067 853.958z" p-id="2204" fill="#1296db"></path><path d="M659.808 874.233c-5.215 0-10.435-1.985-14.42-5.97L517.964 740.839c-7.957-7.96-7.957-20.87 0-28.825 7.965-7.965 20.875-7.965 28.835 0l113.01 113.005 208.575-208.579c7.965-7.955 20.875-7.955 28.835 0 7.955 7.96 7.955 20.87 0 28.835L674.223 868.263C670.248 872.248 665.028 874.233 659.808 874.233z" p-id="2205" fill="#1296db"></path></svg>