<?xml version="1.0" standalone="no"?><!DOCTYPE svg PUBLIC "-//W3C//DTD SVG 1.1//EN" "http://www.w3.org/Graphics/SVG/1.1/DTD/svg11.dtd"><svg t="1554899265614" class="icon" style="" viewBox="0 0 1024 1024" version="1.1" xmlns="http://www.w3.org/2000/svg" p-id="4944" xmlns:xlink="http://www.w3.org/1999/xlink" width="200" height="200"><defs><style type="text/css"></style></defs><path d="M976.2 10.8H47.8C21.4 10.8 0 32.2 0 58.6v141.2c0 26.4 21.4 47.8 47.8 47.8h142v191C164.8 467.2 59.6 591.6 46.8 674v318c0 11.8 9.6 21.2 21.2 21.2h257.2c7 0 13.4-3.4 17.4-9.2l108.6-156.4c1.4-2 2.4-4.2 3-6.6 0-3.4 11.2-41.2 23.8-93h335.2c11.8 0 21.2-9.6 21.2-21.2V247.4h142c26.4 0 47.8-21.4 47.8-47.8V58.6c-0.2-26.4-21.6-47.8-48-47.8zM478.8 522.6c-15.6 102.4-37.2 203.8-64.8 303.6l-100.4 144.2H89V679.4c8.2-48.4 60-122.6 100.8-173.8v221.4c0 11.8 9.6 21.2 21.2 21.2h76.6c2.6 0 5.2-0.6 7.6-1.4l2.4-1.2c1.6-0.8 3-1.6 4.2-2.8l2-2.2c1-1.2 1.8-2.4 2.6-3.8l1.2-2.8v-1.4c21.2-78.6 67.4-214 102.4-244.2 23.8-21.2 37.6-23.6 43.4-23.6 4.4-0.2 8.8 2 11.4 5.6a81.6 81.6 0 0 1 14 52.2z m313 183.2H488c13.2-57.6 26.6-123.8 33.2-178 2.6-30.2-6-60.4-24-84.8-10.6-12.4-26.2-19.6-42.4-19.8-27 2.4-52.4 14.4-71.2 33.8-49.2 42.4-96.4 197.2-111.4 249.8h-39.8V151.2h559.8v554.6z m189.8-506.4c0 3-2.4 5.4-5.4 5.4h-142V151.2h38.4c11.8 0 21.2-9.6 21.2-21.2s-9.6-21.2-21.2-21.2H151.2C139.6 108.8 130 118.4 130 130s9.6 21.2 21.2 21.2H190v54.6H47.8c-3 0-5.4-2.4-5.4-5.4v-142c0-3 2.4-5.4 5.4-5.4h928.6c3 0 5.4 2.4 5.4 5.4v141z" p-id="4945"></path></svg>