<?xml version="1.0" standalone="no"?><!DOCTYPE svg PUBLIC "-//W3C//DTD SVG 1.1//EN" "http://www.w3.org/Graphics/SVG/1.1/DTD/svg11.dtd"><svg t="1548751670589" class="icon" style="" viewBox="0 0 1219 1024" version="1.1" xmlns="http://www.w3.org/2000/svg" p-id="2421" xmlns:xlink="http://www.w3.org/1999/xlink" width="238.0859375" height="200"><defs><style type="text/css"></style></defs><path d="M672.353524 776.533333l17.237333-17.261714-103.472762-103.472762a24.33219 24.33219 0 0 1 0.195048-34.620952l34.157714-34.133334a24.454095 24.454095 0 0 1 34.620953-0.219428l103.472761 103.497143 17.237334-17.237334-103.497143-103.497142a24.33219 24.33219 0 0 1 0.219428-34.596572l34.133334-34.133333a24.454095 24.454095 0 0 1 34.620952-0.24381l103.472762 103.497143 25.84381-25.843809a12.068571 12.068571 0 0 0 0.024381-17.237334L456.850286 147.236571a12.239238 12.239238 0 0 0-17.237334 0.024381L146.553905 440.32a12.068571 12.068571 0 0 0-0.024381 17.237333L560.298667 871.375238a12.239238 12.239238 0 0 0 17.237333 0l25.84381-25.86819-103.472762-103.497143a24.33219 24.33219 0 0 1 0.219428-34.596572l34.133334-34.133333a24.454095 24.454095 0 0 1 34.620952-0.24381l103.472762 103.497143z m275.846095-275.846095l112.128-112.152381a12.141714 12.141714 0 0 0 0.024381-17.066667l-207.09181-207.067428a12.117333 12.117333 0 0 0-17.066666 0.024381l-112.128 112.152381-68.949334-68.998095 172.422096-172.397715a24.234667 24.234667 0 0 1 34.425904 0L1189.571048 362.788571c9.508571 9.508571 9.386667 25.039238 0 34.425905L801.621333 785.16419l-215.405714 215.405715a24.527238 24.527238 0 0 1-34.523429 0.073143L17.212952 466.18819a24.454095 24.454095 0 0 1 0.073143-34.523428L430.933333 18.017524a24.527238 24.527238 0 0 1 34.523429-0.073143l482.742857 482.742857z" p-id="2422"></path></svg>