<?xml version="1.0" standalone="no"?><!DOCTYPE svg PUBLIC "-//W3C//DTD SVG 1.1//EN" "http://www.w3.org/Graphics/SVG/1.1/DTD/svg11.dtd"><svg t="1555212026652" class="icon" style="" viewBox="0 0 1024 1024" version="1.1" xmlns="http://www.w3.org/2000/svg" p-id="3361" xmlns:xlink="http://www.w3.org/1999/xlink" width="200" height="200"><defs><style type="text/css"></style></defs><path d="M462.76677476 532.12884267c78.3344992-38.1586784 132.4152768-118.34986453 132.4152768-211.28244054 0-129.86328747-105.27774187-235.14102827-235.13884587-235.14102826-129.86656213 0-235.13993707 105.27774187-235.13993706 235.14102826 0 92.932576 54.0807776 173.12376107 132.41090986 211.28244054C120.98141263 573.57410773 20.06541156 695.35900587 8.84560996 842.370176c-0.97909973 2.35005653-1.5172224 4.84746987-1.5172224 7.54463147 0 10.82466987 8.77259947 19.59617707 19.5929024 19.59617706 10.82576107 0 19.59836053-8.77150827 19.59836053-19.59617706l0.97800747 0c10.18830933-163.96257813 145.98404373-293.92519467 312.5400896-293.92519467 166.50801813 0 302.35505493 129.96261653 312.5400896 293.92519467l0.97800747 0c0 10.8770624 8.77150827 19.59617707 19.59836053 19.59617706 10.82794347 0 19.5929024-8.77150827 19.5929024-19.59617706 0-2.69716267-0.5872416-5.1421824-1.5194048-7.49223894C700.01444943 695.35900587 599.09953956 573.57410773 462.76677476 532.12884267L462.76677476 532.12884267 462.76677476 532.12884267zM164.09016463 320.84640213c0-108.1637376 87.73363413-195.94867413 195.94867413-195.94867413 108.16701227 0 195.90392213 87.78493653 195.90392213 195.94867413 0 108.26306667-87.7369088 196.00106773-195.90392213 196.00106774C251.82379876 516.84746987 164.09016463 429.1094688 164.09016463 320.84640213L164.09016463 320.84640213 164.09016463 320.84640213zM887.58784036 842.370176C876.37131236 695.35900587 775.45531129 573.57410773 639.17275663 532.12884267c78.28428907-38.1586784 132.36724907-118.34986453 132.36724906-211.28244054 0-129.8185344-105.22971413-235.14102827-235.0930016-235.14102826-10.82685227 0-21.35899307 0.97909973-31.69356693 2.40354133 17.33890027 10.82466987 33.60482987 23.36412693 48.0075232 37.6664 100.57326187 8.2781376 179.63471787 92.44684587 179.63471787 195.07108693 0 102.33935253-78.52333333 186.15222293-178.61086507 194.9695744 1.37314027 3.2844032 2.15685653 6.95957333 2.15685653 10.78428267 0 1.31965547-0.5337568 2.44174507-0.73568853 3.6238688 17.34108373 10.03767893 34.04689813 21.06428053 49.72667733 33.6026464 133.83207787 29.9340256 235.2862016 145.34331733 243.95619734 286.08912533l0.98019093 0c0 10.8770624 8.81953493 19.59617707 19.59508587 19.59617707 10.8759712 0 19.59508587-8.77150827 19.59508586-19.59617707C889.10506276 847.21764587 888.51891236 844.7202336 887.58784036 842.370176L887.58784036 842.370176 887.58784036 842.370176zM887.58784036 842.370176" p-id="3362" fill="#1296db"></path></svg>