<?xml version="1.0" standalone="no"?><!DOCTYPE svg PUBLIC "-//W3C//DTD SVG 1.1//EN" "http://www.w3.org/Graphics/SVG/1.1/DTD/svg11.dtd"><svg t="1554896041009" class="icon" style="" viewBox="0 0 1024 1024" version="1.1" xmlns="http://www.w3.org/2000/svg" p-id="2689" xmlns:xlink="http://www.w3.org/1999/xlink" width="200" height="200"><defs><style type="text/css"></style></defs><path d="M564.6 332.90000000000003H464.1v100h100.5v-100z m139.1 136h-101v100h101v-100z m-139.1 0H464.1v58.7c0 14.4-0.3 28.2-1 41.2h101.5v-99.9z m139.1-136h-101v100h101v-100z m115-28.7c-23-23.7-47.4-44.7-72.3-62.6-4.1-3.1-7.8-5.8-11.5-8.1 35.5-17.9 59-50.1 59-87.2 0-58.6-57.1-103.3-124.8-103.3-15.7 0-29.9 2.7-42.8 7.6-6.4 2.2-11.1 4.5-14.7 6.7-1.8 0.9-6.9-0.4-8.8-2.7-5.1-7.6-12.9-16.6-23.9-25.9-19.2-16.3-41.7-26.9-66.8-29.1-25.1 2.2-47.6 12.8-66.8 29.1-11.1 9.4-18.9 18.3-23.9 25.9-1.8 2.2-6.9 3.6-8.8 2.7-3.7-2.2-8.3-4.5-14.7-6.7-12.9-4.9-27.2-7.6-42.8-7.6-67.7 0-124.8 44.7-124.8 103.3 0 37.1 23.5 69.3 59 87.2-3.7 2.2-7.4 4.9-11.5 8.1-24.9 17.9-49.3 38.9-72.3 62.6-67 68.4-108 147.2-108 234.4 0 242.5 186.1 357.9 410.4 357.9h8.2c224.3 0 410.4-115.4 410.4-357.9 0-87.2-41-166-107.8-234.4zM361.5 775.4999999999999h-39.2V478.20000000000005c-15.5 28.5-31.6 54.8-48.4 78.8-6.2-14.8-12.5-29.7-19.1-44.8 49.5-75.6 85.5-157.5 108.2-245.8l40.2 12.9c-13 41.6-27 80.2-41.7 115.9v380.3z m380.3-61.8c0 36.8-17.7 55.3-53.1 55.7-15.1 0.3-34.7 0.2-58.7-0.5-2.1-12.7-4.8-26.3-8.2-40.7 24.7 2.1 43.8 3.1 57.2 3.1 16.5 0 24.7-8.4 24.7-25.2V604.9999999999999h-101v146.3h-38.1V604.9999999999999H461c-6.9 74.5-24.4 130.9-52.6 169-10-11-20.1-21.1-30.4-30.4 32.3-45 48.3-115.9 47.9-212.8v-234h315.9v416.9z" fill="#8a8a8a" p-id="2690"></path></svg>