<?xml version="1.0" standalone="no"?><!DOCTYPE svg PUBLIC "-//W3C//DTD SVG 1.1//EN" "http://www.w3.org/Graphics/SVG/1.1/DTD/svg11.dtd"><svg t="1554895903998" class="icon" style="" viewBox="0 0 1024 1024" version="1.1" xmlns="http://www.w3.org/2000/svg" p-id="1858" xmlns:xlink="http://www.w3.org/1999/xlink" width="200" height="200"><defs><style type="text/css"></style></defs><path d="M256 368.64l249.173333 160.426667 262.826667-170.666667-249.173333-163.84z" fill="#CEA754" p-id="1859"></path><path d="M512 0C228.693333 0 0 228.693333 0 512s228.693333 512 512 512 512-228.693333 512-512S795.306667 0 512 0z m320.853333 679.253333l-314.026666 204.8c0 3.413333-6.826667 3.413333-13.653334 3.413334s-10.24 0-13.653333-3.413334l-300.373333-194.56c-13.653333-6.826667-17.066667-23.893333-6.826667-37.546666 6.826667-13.653333 23.893333-17.066667 37.546667-6.826667l286.72 184.32 296.96-194.56c13.653333-6.826667 30.72-3.413333 37.546666 6.826667 6.826667 13.653333 3.413333 30.72-10.24 37.546666z m0-133.12l-314.026666 204.8c-3.413333 3.413333-10.24 3.413333-13.653334 3.413334-6.826667 0-10.24 0-13.653333-3.413334l-300.373333-194.56c-13.653333-6.826667-17.066667-23.893333-6.826667-37.546666 6.826667-13.653333 23.893333-17.066667 37.546667-6.826667l286.72 184.32 296.96-194.56c13.653333-6.826667 30.72-3.413333 37.546666 6.826667 6.826667 10.24 3.413333 27.306667-10.24 37.546666z m0-167.253333l-314.026666 204.8c-3.413333 3.413333-10.24 3.413333-13.653334 3.413333-6.826667 0-10.24 0-13.653333-3.413333l-300.373333-194.56c-6.826667-3.413333-13.653333-13.653333-13.653334-23.893333s3.413333-17.066667 13.653334-23.893334l314.026666-204.8c10.24-6.826667 20.48-6.826667 30.72 0l300.373334 194.56c6.826667 3.413333 13.653333 13.653333 13.653333 23.893334s-6.826667 20.48-17.066667 23.893333z" fill="#CEA754" p-id="1860"></path></svg>