<?xml version="1.0" standalone="no"?><!DOCTYPE svg PUBLIC "-//W3C//DTD SVG 1.1//EN" "http://www.w3.org/Graphics/SVG/1.1/DTD/svg11.dtd"><svg t="1554896235675" class="icon" style="" viewBox="0 0 1024 1024" version="1.1" xmlns="http://www.w3.org/2000/svg" p-id="3443" xmlns:xlink="http://www.w3.org/1999/xlink" width="200" height="200"><defs><style type="text/css"></style></defs><path d="M378.07104 65.60256c-84.83328 0-153.6 68.76672-153.6 153.6s68.76672 153.6 153.6 153.6 153.6-68.76672 153.6-153.6-68.76672-153.6-153.6-153.6z m-0.14848 262.71744c-61.32736 0-111.04256-49.7152-111.04256-111.04256s49.7152-111.04256 111.04256-111.04256S488.96 155.9552 488.96 217.28256s-49.7152 111.03744-111.03744 111.03744z" fill="#5FCEFF" p-id="3444"></path><path d="M894.80192 654.99136c-15.44192-0.79872-34.36032 15.96928-47.41632 28.99456-33.44384 33.39264-62.27968 71.6544-97.29536 103.15264-22.77888 20.50048-29.2096 39.78752-18.37568 66.45248 21.1968 52.17792-28.544 42.27584-49.82272 55.97696-26.43968 17.01888-38.81984 0.51712-44.95872-23.75168-10.34752-40.79104-36.62336-48.22528-75.87328-44.62592-43.33056 3.98336-87.87968 2.36544-131.12832-2.98496-37.87264-4.6848-63.60064 2.5344-72.2176 42.17856-9.4464 43.41248-33.41824 34.9184-64.9728 23.92576-33.78688-11.776-46.90944-25.9072-28.82048-60.35968 18.13504-34.5344 10.0608-62.2848-21.632-86.97344-45.81888-35.72736-71.48032-82.88256-81.33632-132.736l-0.27648-0.08704c-2.84672-15.88224-3.99872-32.41984-3.99872-49.43872 0-24.6528 9.11872-70.43072 9.22112-70.43072a266.3168 266.3168 0 0 1 6.1696-18.60096c0.59392-1.46432 1.1264-2.95936 1.76128-4.40832h-0.1536c20.864-53.64736 58.90048-100.30592 109.02016-127.22176 95.31904-51.19488 194.14528-63.58016 298.13248-46.72512 32.52736 5.2736 53.67296 3.67104 71.808-29.76256 14.1312-26.05056 41.71776-44.80512 63.32416-66.79552 2.3552 2.14016 4.72576 4.29568 7.07584 6.44608-4.1216 28.64128-8.2688 57.27232-12.35968 85.90848-3.39968 23.89504 3.64032 39.32672 28.5184 49.44896 56.93952 23.15264 92.88192 67.28704 106.46528 126.67392 8.21248 35.87584 28.34432 49.86368 62.36672 46.78144 29.35808-2.66752 38.03136 11.392 35.68128 37.90336-1.07008 11.91936-1.41312 24.1664 0.05632 35.99872 4.64384 37.45792-5.11488 57.32352-48.96256 55.06048z" fill="#FFB578" p-id="3445"></path><path d="M166.2208 504.2688c-0.11264 0-0.21504 0.01536-0.32256 0.02048l-0.00512 0.02048c-0.14336 0 0.4608-0.04096 0.32768-0.04096z" fill="" p-id="3446"></path><path d="M599.05536 422.26688c-9.53344 0-16.67584 4.18304-21.41696 12.4928l-82.09408 123.14624-82.09408-123.14624c-4.77184-8.30976-11.90912-12.4928-21.41696-12.4928-9.53856 1.19808-14.88896 6.5536-16.06144 16.06144a67.4304 67.4304 0 0 0 5.35552 14.27968c1.17248 1.19808 1.78688 2.39616 1.78688 3.56864l73.17504 112.43008h-42.83392c-13.1072 0-19.63008 5.3504-19.63008 16.06144 1.17248 8.34048 7.72608 13.11232 19.63008 14.27968h62.464v32.11776h-62.464c-13.1072 0-19.63008 5.35552-19.63008 16.07168 1.17248 8.33024 7.72608 13.1072 19.63008 14.26944h62.464v71.38816c0 11.904 6.52288 17.83808 19.63008 17.83808 13.0816 0 19.63008-5.93408 19.63008-17.83808v-71.38816h62.45888c11.8784-1.17248 18.44224-5.9392 19.63008-14.26944 0-10.71616-6.54336-16.07168-19.63008-16.07168h-62.45888v-32.11776h62.45888c11.8784-1.17248 18.44224-5.9392 19.63008-14.27968 0-10.71104-6.54336-16.06144-19.63008-16.06144h-42.82368l73.16992-112.43008c-0.00512-1.17248 0.57344-2.37056 1.78688-3.56864 3.56352-7.13728 5.3504-11.8784 5.3504-14.27968-1.19808-9.50784-6.5536-14.86336-16.06656-16.06144zM746.88 489.48736c-14.21824 2.04288-33.82784 21.78048-36.49536 36.4544-4.25472 23.4496 15.08352 42.05056 39.13728 37.51936 15.37024-2.89792 27.97056-20.52096 52.46976-40.01792-26.0096-17.06496-42.04032-35.83488-55.11168-33.95584z" fill="#3432A8" p-id="3447"></path><path d="M984.0384 550.5792c-1.13152-44.1344-19.26144-64.64-63.104-64-26.0864 0.37888-30.12608-14.04928-40.83712-32.26112-23.808-40.47872-48.512-83.22048-82.69824-114.14528-48.81408-44.14976-52.66944-40.00768-33.70496-103.0912 3.83488-12.7488 10.22464-24.96512 12.33408-37.92384 1.93024-11.96032 4.37248-30.4384-1.8688-35.44064-7.69024-6.15424-27.36128-6.1952-36.3008-0.36864-39.4496 25.69728-79.1808 51.92704-114.02752 83.25632-15.2832 13.73184-24.38144 20.28032-46.11072 18.02752-184.34048-19.21536-345.54368 16.97792-446.18752 196.48-56.42752-30.33088-65.44896-68.6848-28.99456-108.07296 7.60832-8.22784 7.81312-23.3216 11.43296-35.2512-13.07136 1.8944-29.21472-0.47104-38.68672 6.37952-54.8352 39.64416-45.58848 124.8512 19.20512 164.03968 10.58816 6.40512 21.248 12.94848 25.95328 20.50048a283.57632 283.57632 0 0 0-0.6656 129.30048l-0.13312 0.20992c11.17696 52.41856 39.87456 98.60096 84.0448 138.112 25.41568 22.72256 29.25568 40.93952 16.29696 71.23968-18.8672 44.12928-5.65248 68.70016 40.03328 87.11168 11.10528 4.48 22.36416 8.63744 33.59744 12.81024 56.02816 20.84864 75.904 13.17376 97.9456-43.8528 8.72448-22.58432 20.02432-25.25696 41.96864-23.10656 40.9088 4.02944 82.54976 6.50752 123.38176 3.32288 25.97888-2.02752 37.32992 2.56 46.47936 27.97568 16.39936 45.57824 42.0608 54.89152 88.28928 38.2976 15.04256-5.4016 30.11072-10.79808 44.84096-16.9984 38.79936-16.31232 51.85024-38.85056 38.1696-79.1296-8.02304-23.67488 1.61792-31.01696 17.11104-44.73856 28.57984-25.32864 55.99744-53.32992 77.696-84.5312 14.42304-20.76672 26.09664-32.26112 52.93056-31.90784 41.09312 0.54272 60.14976-20.7872 61.55264-62.208 0.88576-26.65472 0.73728-53.38112 0.05632-80.03584z m-89.23648 104.41216c-15.44192-0.79872-34.36032 15.96928-47.41632 28.99456-33.44384 33.39264-62.27968 71.6544-97.29536 103.15264-22.77888 20.50048-29.2096 39.78752-18.37568 66.45248 21.1968 52.17792-28.544 42.27584-49.82272 55.97696-26.43968 17.01888-38.81984 0.51712-44.95872-23.75168-10.34752-40.79104-36.62336-48.22528-75.87328-44.62592-43.33056 3.98336-87.87968 2.36544-131.12832-2.98496-37.87264-4.6848-63.60064 2.5344-72.2176 42.17856-9.4464 43.41248-33.41824 34.9184-64.9728 23.92576-33.78688-11.776-46.90944-25.9072-28.82048-60.35968 18.13504-34.5344 10.0608-62.2848-21.632-86.97344-45.81888-35.72736-71.48032-82.88256-81.33632-132.736l-0.27648-0.08704c-2.84672-15.88224-3.99872-32.41984-3.99872-49.43872 0-24.6528 9.11872-70.43072 9.22112-70.43072a266.3168 266.3168 0 0 1 6.1696-18.60096c0.59392-1.46432 1.1264-2.95936 1.76128-4.40832h-0.1536c20.864-53.64736 58.90048-100.30592 109.02016-127.22176 95.31904-51.19488 194.14528-63.58016 298.13248-46.72512 32.52736 5.2736 53.67296 3.67104 71.808-29.76256 14.1312-26.05056 41.71776-44.80512 63.32416-66.79552 2.3552 2.14016 4.72576 4.29568 7.07584 6.44608-4.1216 28.64128-8.2688 57.27232-12.35968 85.90848-3.39968 23.89504 3.64032 39.32672 28.5184 49.44896 56.93952 23.15264 92.88192 67.28704 106.46528 126.67392 8.21248 35.87584 28.34432 49.86368 62.36672 46.78144 29.35808-2.66752 38.03136 11.392 35.68128 37.90336-1.07008 11.91936-1.41312 24.1664 0.05632 35.99872 4.64384 37.45792-5.11488 57.32352-48.96256 55.06048z" fill="#3432A8" p-id="3448"></path></svg>