<?xml version="1.0" standalone="no"?><!DOCTYPE svg PUBLIC "-//W3C//DTD SVG 1.1//EN" "http://www.w3.org/Graphics/SVG/1.1/DTD/svg11.dtd"><svg t="1554899335446" class="icon" style="" viewBox="0 0 1024 1024" version="1.1" xmlns="http://www.w3.org/2000/svg" p-id="6527" data-spm-anchor-id="a313x.7781069.0.i7" xmlns:xlink="http://www.w3.org/1999/xlink" width="200" height="200"><defs><style type="text/css"></style></defs><path d="M662.821101 614.318651h-125.450335v-62.401842h122.217079a23.602769 23.602769 0 1 0 0-47.528864h-100.554263l61.431865-108.314078a23.602769 23.602769 0 0 0-41.385678-23.279443l-60.461888 106.050798-64.665121-105.727473a23.602769 23.602769 0 0 0-40.415701 24.896072l64.665121 106.374124h-117.367195a23.602769 23.602769 0 1 0 0 47.528864h129.330243V614.318651h-125.773661a23.602769 23.602769 0 0 0 0 47.528864h125.450335v117.367195a23.602769 23.602769 0 1 0 47.528864 0v-118.660497h125.450335a23.602769 23.602769 0 1 0 0-47.528864z" p-id="6528"></path><path d="M966.747171 673.487237A468.822129 468.822129 0 0 0 627.57861 96.997682a117.690521 117.690521 0 0 0-231.177808 0A468.822129 468.822129 0 0 0 56.58559 673.487237a117.367195 117.367195 0 0 0 113.163962 202.725155 469.792105 469.792105 0 0 0 684.156982 0 117.367195 117.367195 0 0 0 113.163962-202.725155z m-455.242453 290.993046A410.946845 410.946845 0 0 1 218.248393 840.646575a117.367195 117.367195 0 0 0-89.561193-193.995363 116.720544 116.720544 0 0 0-17.459582 1.616628 409.976868 409.976868 0 0 1 289.376417-492.748224 117.043869 117.043869 0 0 0 222.124691 0 409.976868 409.976868 0 0 1 289.376417 494.364852 117.043869 117.043869 0 0 0-107.020775 190.762107 410.946845 410.946845 0 0 1-293.256325 124.157033z" p-id="6529"></path></svg>