<?xml version="1.0" standalone="no"?><!DOCTYPE svg PUBLIC "-//W3C//DTD SVG 1.1//EN" "http://www.w3.org/Graphics/SVG/1.1/DTD/svg11.dtd"><svg t="1554899374059" class="icon" style="" viewBox="0 0 1024 1024" version="1.1" xmlns="http://www.w3.org/2000/svg" p-id="7296" xmlns:xlink="http://www.w3.org/1999/xlink" width="200" height="200"><defs><style type="text/css"></style></defs><path d="M901.37 138.877H122.63c-61.122 0-110.729 49.289-111.23 110.274h1001.222c-0.523-60.985-50.13-110.274-111.252-110.274zM11.378 304.788v468.355c0 61.417 49.812 111.206 111.252 111.206h778.74c61.44 0 111.252-49.789 111.252-111.206V304.788H11.378z m654.336 352.028c0 10.946-8.875 19.82-19.775 19.82H532.685v72.272c0 10.9-8.852 19.752-19.707 19.752h-1.911c-10.877 0-19.729-8.852-19.729-19.752v-72.272H378.084c-10.9 0-19.775-8.897-19.775-19.82v-2.161c0-10.923 8.875-19.798 19.775-19.798v0.023h113.254V596.4h-86.653c-10.9 0-19.775-8.897-19.775-19.82v-1.752c0-10.945 8.875-19.82 19.775-19.82H490.2l-94.845-92.388c-3.846-3.777-5.962-8.806-5.962-14.13 0-5.348 2.14-10.377 5.985-14.132 3.777-3.732 8.829-5.78 14.2-5.78s10.444 2.07 14.244 5.803l88.406 87.222 88.11-86.972a20.247 20.247 0 0 1 14.199-5.757c5.347 0 10.376 2.025 14.153 5.757 3.823 3.71 5.94 8.715 5.962 14.04 0 5.348-2.116 10.331-5.962 14.109l-93.48 92.25h84.128c10.923 0 19.82 8.898 19.82 19.82v1.73c0 10.946-8.897 19.82-19.82 19.82h-86.63v38.48h113.254c10.9 0 19.775 8.875 19.775 19.797v2.14z" p-id="7297"></path></svg>