<?xml version="1.0" standalone="no"?><!DOCTYPE svg PUBLIC "-//W3C//DTD SVG 1.1//EN" "http://www.w3.org/Graphics/SVG/1.1/DTD/svg11.dtd"><svg t="1554896351243" class="icon" style="" viewBox="0 0 1024 1024" version="1.1" xmlns="http://www.w3.org/2000/svg" p-id="4175" xmlns:xlink="http://www.w3.org/1999/xlink" width="200" height="200"><defs><style type="text/css"></style></defs><path d="M512 1024C230.4 1024 0 793.6 0 512S230.4 0 512 0s512 230.4 512 512-230.4 512-512 512z m0-41.6c259.2 0 470.4-211.2 470.4-470.4S771.2 41.6 512 41.6 41.6 252.8 41.6 512 252.8 982.4 512 982.4z" p-id="4176"></path><path d="M624 364.8c-3.2 76.8-6.4 137.6-16 185.6h195.2v70.4h-211.2c0 3.2-3.2 6.4-3.2 9.6 73.6 22.4 144 48 214.4 73.6l-28.8 70.4c-76.8-32-150.4-60.8-224-89.6-48 44.8-124.8 76.8-224 96-19.2-32-35.2-57.6-48-73.6 118.4-16 195.2-44.8 230.4-86.4H262.4v-70.4h176c-38.4-22.4-76.8-44.8-108.8-60.8l35.2-54.4c35.2 16 73.6 38.4 118.4 60.8L448 547.2h83.2c9.6-48 16-108.8 16-185.6h76.8z m-352 54.4V275.2h227.2c-6.4-19.2-12.8-35.2-19.2-48l96-9.6c6.4 16 12.8 35.2 19.2 57.6h198.4v144h-76.8v-76.8H352v76.8H272z m137.6-60.8c38.4 16 80 35.2 121.6 57.6l-35.2 57.6c-44.8-25.6-83.2-44.8-118.4-60.8l32-54.4z" p-id="4177"></path></svg>