<?xml version="1.0" standalone="no"?><!DOCTYPE svg PUBLIC "-//W3C//DTD SVG 1.1//EN" "http://www.w3.org/Graphics/SVG/1.1/DTD/svg11.dtd"><svg t="1551668994038" class="icon" style="" viewBox="0 0 1024 1024" version="1.1" xmlns="http://www.w3.org/2000/svg" p-id="1105" xmlns:xlink="http://www.w3.org/1999/xlink" width="200" height="200"><defs><style type="text/css"></style></defs><path d="M745.604944 958.445982 287.232328 958.445982c-27.451212 0-45.188178-12.802584-45.188178-32.615838L242.04415 110.169145c0-21.969361 23.64963-46.092781 45.188178-46.092781L745.604944 64.076364c19.529799 0 32.651654 18.523889 32.651654 46.092781l0 815.660998C778.256598 947.778015 767.576351 958.445982 745.604944 958.445982zM287.232328 90.682325c-6.947226 0-18.582217 12.201903-18.582217 19.48682l0 815.660998c0 3.145643 8.856715 6.009877 18.582217 6.009877L745.604944 931.84002c3.110851 0 4.770653-0.282433 5.561669-0.48607 0.202615-0.787946 0.485047-2.438539 0.485047-5.523807L751.65166 110.169145c0-11.304464-3.611248-19.48682-6.045693-19.48682L287.232328 90.682325z" p-id="1106"></path><path d="M713.788308 780.390703l-408.299173 0 0-589.42437 408.299173 0L713.788308 780.390703zM332.095096 753.784742l355.087251 0 0-536.212448-355.087251 0L332.095096 753.784742z" p-id="1107"></path><path d="M420.099429 127.521349l180.101891 0 0 26.605961-180.101891 0 0-26.605961Z" p-id="1108"></path><path d="M514.298857 915.941935c-28.16241 0-51.074236-22.911826-51.074236-51.073212 0-28.16241 22.911826-51.074236 51.074236-51.074236 28.16241 0 51.075259 22.911826 51.075259 51.074236C565.374116 893.031133 542.461267 915.941935 514.298857 915.941935zM514.298857 839.331094c-14.081717 0-25.537629 11.455913-25.537629 25.537629 0 14.080693 11.455913 25.536606 25.537629 25.536606s25.538653-11.455913 25.538653-25.536606C539.83751 850.787006 528.380574 839.331094 514.298857 839.331094z" p-id="1109"></path></svg>